<svg width="35" height="35" viewBox="0 0 35 35" fill="none" xmlns="http://www.w3.org/2000/svg">
  <circle cx="17.5" cy="17.5" r="17.5" fill="navy"/>
  <path d="M27.972 12.046l-13.24 13.241c-.241.24-.482.361-.843.361s-.602-.12-.843-.361l-6.018-6.018a1.164 1.164 0 0 1 0-1.686 1.164 1.164 0 0 1 1.685 0l5.176 5.176 12.398-12.398a1.164 1.164 0 0 1 1.685 0 1.164 1.164 0 0 1 0 1.685z" fill="#fff"/>
  <path d="M27.972 12.046l-13.24 13.241c-.241.24-.482.361-.843.361s-.602-.12-.843-.361l-6.018-6.018a1.164 1.164 0 0 1 0-1.686 1.164 1.164 0 0 1 1.685 0l5.176 5.176 12.398-12.398a1.164 1.164 0 0 1 1.685 0 1.164 1.164 0 0 1 0 1.685z" fill="#fff"/>
</svg>
